<?xml version="1.0" standalone="no"?>
<!DOCTYPE svg PUBLIC "-//W3C//DTD SVG 20010904//EN"
 "http://www.w3.org/TR/2001/REC-SVG-20010904/DTD/svg10.dtd">
<svg version="1.0" xmlns="http://www.w3.org/2000/svg"
 width="512.000000pt" height="512.000000pt" viewBox="0 0 512.000000 512.000000"
 preserveAspectRatio="xMidYMid meet">
<metadata>
Created by potrace 1.11, written by Peter Selinger 2001-2013
</metadata>
<g transform="translate(0.000000,512.000000) scale(0.100000,-0.100000)"
fill="#000000" stroke="none">
<path d="M2546 4361 c-1 -3 -3 -37 -5 -75 -2 -109 -47 -165 -138 -173 -39 -4
-55 0 -82 19 -59 40 -73 67 -74 149 l-2 74 -40 -3 c-36 -2 -92 -9 -135 -17 -8
-1 -35 -6 -60 -10 -25 -3 -62 -11 -82 -16 l-38 -10 5 -87 c7 -133 16 -250 20
-270 1 -10 7 -45 11 -77 4 -33 8 -62 9 -65 1 -3 5 -25 9 -50 41 -234 125 -384
356 -633 164 -177 294 -290 360 -313 25 -9 57 -21 72 -26 54 -20 87 -107 66
-171 -15 -45 -36 -67 -84 -88 -75 -34 -159 -9 -295 86 -43 30 -81 55 -84 55
-17 0 -80 -187 -91 -270 -3 -25 -8 -53 -10 -62 -2 -14 4 -18 24 -19 465 -13
759 -100 897 -265 l37 -44 160 0 c155 0 160 -1 192 -25 18 -14 40 -25 50 -25
15 0 17 -18 16 -197 l-1 -198 -135 -130 c-153 -148 -161 -164 -159 -297 l2
-78 -34 0 -33 0 0 -97 0 -98 72 2 c40 1 84 2 98 2 26 1 26 1 26 96 l1 95 -34
0 -33 0 0 96 0 96 69 66 c37 37 89 87 115 112 l46 44 0 -377 0 -377 -41 0 -41
0 26 -42 c14 -24 38 -67 53 -95 25 -48 43 -67 43 -45 0 5 23 47 51 93 l50 84
-39 3 -40 3 0 495 c0 538 -4 503 48 454 85 -79 153 -145 165 -163 16 -24 22
-217 7 -217 -20 0 -50 -38 -55 -67 -6 -37 22 -88 57 -104 14 -7 40 -9 61 -5
74 14 97 113 38 166 -27 24 -28 30 -29 120 -1 134 4 127 -230 347 -54 50 -61
66 -62 143 l-1 65 42 20 c22 11 50 32 60 47 27 36 33 114 14 160 -19 45 -79
87 -134 92 -47 5 -113 -21 -137 -55 -12 -18 -26 -24 -61 -25 -44 -2 -47 0
-131 85 -205 206 -278 355 -225 464 16 32 32 49 61 62 95 43 190 -6 214 -109
4 -16 20 -48 36 -70 34 -50 164 -182 243 -247 l57 -48 48 27 c84 48 156 68
282 77 136 9 171 15 234 42 121 50 195 121 249 236 15 31 21 70 25 153 5 139
-9 188 -107 385 -79 156 -73 151 -124 103 -54 -52 -122 -104 -135 -104 -6 0
-12 -4 -14 -9 -5 -13 -123 -71 -198 -97 l-65 -23 1 -43 c0 -24 4 -81 9 -128
13 -144 10 -158 -34 -205 -38 -41 -81 -55 -134 -43 -91 20 -118 72 -132 253
-2 28 -4 64 -4 80 l-1 31 -100 -4 c-107 -4 -146 4 -189 42 -77 68 -53 200 44
241 17 8 71 14 120 15 110 1 146 5 259 26 116 21 270 96 354 171 97 86 98 78
-15 191 -142 142 -273 242 -445 341 -55 31 -65 30 -59 -3 1 -5 4 -50 7 -100
12 -255 -82 -356 -336 -358 -19 -1 -93 2 -165 6 -71 4 -165 9 -207 12 l-78 4
-1 -28 c-5 -111 3 -245 21 -356 6 -33 8 -68 7 -76 -20 -84 -94 -139 -167 -124
-19 4 -38 8 -42 8 -3 1 -18 11 -33 24 -32 28 -52 73 -61 138 -3 27 -10 72 -14
99 -5 28 -7 122 -6 210 4 198 24 278 88 337 64 59 153 71 428 54 243 -15 282
-14 275 7 -2 7 -6 41 -9 77 -3 36 -8 94 -11 130 -10 117 0 108 -180 151 -22 5
-49 11 -60 14 -109 26 -288 50 -448 59 -21 1 -39 0 -41 -3z"/>
<path d="M1495 4174 c-138 -59 -319 -167 -450 -269 -19 -15 -13 -22 131 -163
240 -235 327 -372 333 -525 8 -201 -259 -221 -295 -22 -18 101 -98 201 -337
423 l-68 63 -45 -53 c-80 -93 -126 -184 -164 -321 -16 -59 -19 -97 -17 -212 3
-141 8 -166 54 -282 l25 -62 84 64 c212 163 442 215 533 121 26 -26 33 -44 38
-87 4 -46 1 -59 -19 -88 -30 -45 -71 -68 -133 -75 -96 -10 -157 -38 -259 -122
-48 -39 -55 -48 -44 -61 20 -24 120 -89 189 -123 115 -56 168 -62 542 -64 186
-1 340 1 343 5 2 4 6 33 8 66 9 122 71 312 142 441 19 34 31 62 26 62 -10 0
-125 132 -190 219 -19 25 -38 48 -42 51 -13 10 -88 126 -112 175 -55 109 -117
324 -134 470 -3 22 -7 49 -9 60 -2 11 -7 54 -10 95 -4 41 -8 91 -10 110 -2 19
-4 59 -4 88 -1 35 -5 52 -13 51 -7 0 -49 -16 -93 -35z"/>
</g>
</svg>
